<svg id="Layer_1" data-name="Layer 1" xmlns="http://www.w3.org/2000/svg" viewBox="0 0 1603.29 517.05"><defs><style>.cls-1{font-size:111px;font-family:ProximaNova-Black, Proxima Nova;font-weight:800;}.cls-2{stroke:#000;stroke-miterlimit:10;stroke-width:7px;}.cls-3{font-size:32px;font-family:ProximaNova-Semibold, Proxima Nova;font-weight:600;}.cls-4{fill:#fff;}.cls-5{fill:#fefefe;}.cls-6{fill:#00a1f0;}.cls-7{fill:#141414;}.cls-8{fill:#4fb7df;}.cls-9{fill:#69c1e3;}.cls-10{fill:#00a2f0;}.cls-11{fill:#00a1ee;}.cls-12{fill:#00a1ed;}.cls-13{fill:#00a1f1;}.cls-14{fill:#00a2f2;}.cls-15{fill:#01a2ed;}.cls-16{fill:#00a2ee;}.cls-17{fill:#03a2eb;}.cls-18{fill:#01a0ec;}.cls-19{fill:#03a3eb;}.cls-20{fill:#02a3eb;}.cls-21{fill:#02a3ed;}.cls-22{fill:#009df6;}.cls-23{fill:#05a4e9;}.cls-24{fill:#05a5ec;}.cls-25{fill:#05a4eb;}.cls-26{fill:#07a5e8;}.cls-27{fill:#07a6e9;}.cls-28{fill:#0a9cd0;}.cls-29{fill:#06a4ea;}.cls-30{fill:#00a4e7;}.cls-31{fill:#2c2c2c;}.cls-32{fill:#fedd08;}.cls-33{fill:#afafaf;}.cls-34{fill:#b0b0b0;}.cls-35{fill:#b1b1b1;}.cls-36{fill:#fcfcfc;}.cls-37{fill:#fdfdfd;}.cls-38{fill:#323131;}</style></defs><text class="cls-1" transform="translate(0 92.46)">DUCKID:</text><line class="cls-2" x1="511.29" y1="109.21" x2="1118.79" y2="117.21"/><text class="cls-3" transform="translate(8.96 170.59)">ClusterDuck Protocol wireless communication network<tspan x="0" y="38.4">433Mhz | 868Mhz | 915Mhz | 923Mhz </tspan></text><rect class="cls-4" x="1168.34" y="18.19" width="434.94" height="434.94"/><rect x="1194.44" y="44.29" width="15.22" height="15.22"/><rect x="1209.66" y="44.29" width="15.22" height="15.22"/><rect x="1224.88" y="44.29" width="15.22" height="15.22"/><rect x="1240.11" y="44.29" width="15.22" height="15.22"/><rect x="1255.33" y="44.29" width="15.22" height="15.22"/><rect x="1270.55" y="44.29" width="15.22" height="15.22"/><rect x="1285.78" y="44.29" width="15.22" height="15.22"/><rect x="1331.45" y="44.29" width="15.22" height="15.22"/><rect x="1346.67" y="44.29" width="15.22" height="15.22"/><rect x="1407.56" y="44.29" width="15.22" height="15.22"/><rect x="1468.45" y="44.29" width="15.22" height="15.22"/><rect x="1483.68" y="44.29" width="15.22" height="15.22"/><rect x="1498.9" y="44.29" width="15.22" height="15.22"/><rect x="1514.12" y="44.29" width="15.22" height="15.22"/><rect x="1529.35" y="44.29" width="15.22" height="15.22"/><rect x="1544.57" y="44.29" width="15.22" height="15.22"/><rect x="1559.79" y="44.29" width="15.22" height="15.22"/><rect x="1194.44" y="59.51" width="15.22" height="15.22"/><rect x="1285.78" y="59.51" width="15.22" height="15.22"/><rect x="1331.45" y="59.51" width="15.22" height="15.22"/><rect x="1346.67" y="59.51" width="15.22" height="15.22"/><rect x="1377.11" y="59.51" width="15.22" height="15.22"/><rect x="1392.34" y="59.51" width="15.22" height="15.22"/><rect x="1438.01" y="59.51" width="15.22" height="15.22"/><rect x="1468.45" y="59.51" width="15.22" height="15.22"/><rect x="1559.79" y="59.51" width="15.22" height="15.22"/><rect x="1194.44" y="74.74" width="15.22" height="15.22"/><rect x="1224.88" y="74.74" width="15.22" height="15.22"/><rect x="1240.11" y="74.74" width="15.22" height="15.22"/><rect x="1255.33" y="74.74" width="15.22" height="15.22"/><rect x="1285.78" y="74.74" width="15.22" height="15.22"/><rect x="1331.45" y="74.74" width="15.22" height="15.22"/><rect x="1346.67" y="74.74" width="15.22" height="15.22"/><rect x="1361.89" y="74.74" width="15.22" height="15.22"/><rect x="1377.11" y="74.74" width="15.22" height="15.22"/><rect x="1407.56" y="74.74" width="15.22" height="15.22"/><rect x="1468.45" y="74.74" width="15.22" height="15.22"/><rect x="1498.9" y="74.74" width="15.22" height="15.22"/><rect x="1514.12" y="74.74" width="15.22" height="15.22"/><rect x="1529.35" y="74.74" width="15.22" height="15.22"/><rect x="1559.79" y="74.74" width="15.22" height="15.22"/><rect x="1194.44" y="89.96" width="15.22" height="15.22"/><rect x="1224.88" y="89.96" width="15.22" height="15.22"/><rect x="1240.11" y="89.96" width="15.22" height="15.22"/><rect x="1255.33" y="89.96" width="15.22" height="15.22"/><rect x="1285.78" y="89.96" width="15.22" height="15.22"/><rect x="1316.22" y="89.96" width="15.22" height="15.22"/><rect x="1331.45" y="89.96" width="15.22" height="15.22"/><rect x="1346.67" y="89.96" width="15.22" height="15.22"/><rect x="1392.34" y="89.96" width="15.22" height="15.22"/><rect x="1438.01" y="89.96" width="15.22" height="15.22"/><rect x="1468.45" y="89.96" width="15.22" height="15.22"/><rect x="1498.9" y="89.96" width="15.22" height="15.22"/><rect x="1514.12" y="89.96" width="15.22" height="15.22"/><rect x="1529.35" y="89.96" width="15.22" height="15.22"/><rect x="1559.79" y="89.96" width="15.22" height="15.22"/><rect x="1194.44" y="105.18" width="15.22" height="15.22"/><rect x="1224.88" y="105.18" width="15.22" height="15.22"/><rect x="1240.11" y="105.18" width="15.22" height="15.22"/><rect x="1255.33" y="105.18" width="15.22" height="15.22"/><rect x="1285.78" y="105.18" width="15.22" height="15.22"/><rect x="1316.22" y="105.18" width="15.22" height="15.22"/><rect x="1361.89" y="105.18" width="15.22" height="15.22"/><rect x="1407.56" y="105.18" width="15.22" height="15.22"/><rect x="1438.01" y="105.18" width="15.22" height="15.22"/><rect x="1468.45" y="105.18" width="15.22" height="15.22"/><rect x="1498.9" y="105.18" width="15.22" height="15.22"/><rect x="1514.12" y="105.18" width="15.22" height="15.22"/><rect x="1529.35" y="105.18" width="15.22" height="15.22"/><rect x="1559.79" y="105.18" width="15.22" height="15.22"/><rect x="1194.44" y="120.41" width="15.22" height="15.22"/><rect x="1285.78" y="120.41" width="15.22" height="15.22"/><rect x="1331.45" y="120.41" width="15.22" height="15.22"/><rect x="1346.67" y="120.41" width="15.22" height="15.22"/><rect x="1438.01" y="120.41" width="15.22" height="15.22"/><rect x="1468.45" y="120.41" width="15.22" height="15.22"/><rect x="1559.79" y="120.41" width="15.22" height="15.22"/><rect x="1194.44" y="135.63" width="15.22" height="15.22"/><rect x="1209.66" y="135.63" width="15.22" height="15.22"/><rect x="1224.88" y="135.63" width="15.22" height="15.22"/><rect x="1240.11" y="135.63" width="15.22" height="15.22"/><rect x="1255.33" y="135.63" width="15.22" height="15.22"/><rect x="1270.55" y="135.63" width="15.22" height="15.22"/><rect x="1285.78" y="135.63" width="15.22" height="15.22"/><rect x="1316.22" y="135.63" width="15.22" height="15.22"/><rect x="1346.67" y="135.63" width="15.22" height="15.22"/><rect x="1377.11" y="135.63" width="15.22" height="15.22"/><rect x="1407.56" y="135.63" width="15.22" height="15.22"/><rect x="1438.01" y="135.63" width="15.22" height="15.22"/><rect x="1468.45" y="135.63" width="15.22" height="15.22"/><rect x="1483.68" y="135.63" width="15.22" height="15.22"/><rect x="1498.9" y="135.63" width="15.22" height="15.22"/><rect x="1514.12" y="135.63" width="15.22" height="15.22"/><rect x="1529.35" y="135.63" width="15.22" height="15.22"/><rect x="1544.57" y="135.63" width="15.22" height="15.22"/><rect x="1559.79" y="135.63" width="15.22" height="15.22"/><rect x="1346.67" y="150.85" width="15.22" height="15.22"/><rect x="1361.89" y="150.85" width="15.22" height="15.22"/><rect x="1438.01" y="150.85" width="15.22" height="15.22"/><rect x="1194.44" y="166.08" width="15.22" height="15.22"/><rect x="1209.66" y="166.08" width="15.22" height="15.22"/><rect x="1270.55" y="166.08" width="15.22" height="15.22"/><rect x="1285.78" y="166.08" width="15.22" height="15.22"/><rect x="1301" y="166.08" width="15.22" height="15.22"/><rect x="1331.45" y="166.08" width="15.22" height="15.22"/><rect x="1361.89" y="166.08" width="15.22" height="15.22"/><rect x="1377.11" y="166.08" width="15.22" height="15.22"/><rect x="1392.34" y="166.08" width="15.22" height="15.22"/><rect x="1407.56" y="166.08" width="15.22" height="15.22"/><rect x="1422.78" y="166.08" width="15.22" height="15.22"/><rect x="1438.01" y="166.08" width="15.22" height="15.22"/><rect x="1498.9" y="166.08" width="15.22" height="15.22"/><rect x="1514.12" y="166.08" width="15.22" height="15.22"/><rect x="1194.44" y="181.3" width="15.22" height="15.22"/><rect x="1224.88" y="181.3" width="15.22" height="15.22"/><rect x="1255.33" y="181.3" width="15.22" height="15.22"/><rect x="1301" y="181.3" width="15.22" height="15.22"/><rect x="1316.22" y="181.3" width="15.22" height="15.22"/><rect x="1331.45" y="181.3" width="15.22" height="15.22"/><rect x="1346.67" y="181.3" width="15.22" height="15.22"/><rect x="1361.89" y="181.3" width="15.22" height="15.22"/><rect x="1422.78" y="181.3" width="15.22" height="15.22"/><rect x="1453.23" y="181.3" width="15.22" height="15.22"/><rect x="1483.68" y="181.3" width="15.22" height="15.22"/><rect x="1498.9" y="181.3" width="15.22" height="15.22"/><rect x="1514.12" y="181.3" width="15.22" height="15.22"/><rect x="1529.35" y="181.3" width="15.22" height="15.22"/><rect x="1544.57" y="181.3" width="15.22" height="15.22"/><rect x="1209.66" y="196.52" width="15.22" height="15.22"/><rect x="1240.11" y="196.52" width="15.22" height="15.22"/><rect x="1255.33" y="196.52" width="15.22" height="15.22"/><rect x="1285.78" y="196.52" width="15.22" height="15.22"/><rect x="1301" y="196.52" width="15.22" height="15.22"/><rect x="1316.22" y="196.52" width="15.22" height="15.22"/><rect x="1346.67" y="196.52" width="15.22" height="15.22"/><rect x="1377.11" y="196.52" width="15.22" height="15.22"/><rect x="1392.34" y="196.52" width="15.22" height="15.22"/><rect x="1422.78" y="196.52" width="15.22" height="15.22"/><rect x="1453.23" y="196.52" width="15.22" height="15.22"/><rect x="1468.45" y="196.52" width="15.22" height="15.22"/><rect x="1514.12" y="196.52" width="15.22" height="15.22"/><rect x="1544.57" y="196.52" width="15.22" height="15.22"/><rect x="1559.79" y="196.52" width="15.22" height="15.22"/><rect x="1209.66" y="211.75" width="15.22" height="15.22"/><rect x="1240.11" y="211.75" width="15.22" height="15.22"/><rect x="1331.45" y="211.75" width="15.22" height="15.22"/><rect x="1361.89" y="211.75" width="15.22" height="15.22"/><rect x="1438.01" y="211.75" width="15.22" height="15.22"/><rect x="1453.23" y="211.75" width="15.22" height="15.22"/><rect x="1468.45" y="211.75" width="15.22" height="15.22"/><rect x="1483.68" y="211.75" width="15.22" height="15.22"/><rect x="1498.9" y="211.75" width="15.22" height="15.22"/><rect x="1514.12" y="211.75" width="15.22" height="15.22"/><rect x="1559.79" y="211.75" width="15.22" height="15.22"/><rect x="1194.44" y="226.97" width="15.22" height="15.22"/><rect x="1209.66" y="226.97" width="15.22" height="15.22"/><rect x="1240.11" y="226.97" width="15.22" height="15.22"/><rect x="1255.33" y="226.97" width="15.22" height="15.22"/><rect x="1285.78" y="226.97" width="15.22" height="15.22"/><rect x="1301" y="226.97" width="15.22" height="15.22"/><rect x="1316.22" y="226.97" width="15.22" height="15.22"/><rect x="1331.45" y="226.97" width="15.22" height="15.22"/><rect x="1377.11" y="226.97" width="15.22" height="15.22"/><rect x="1422.78" y="226.97" width="15.22" height="15.22"/><rect x="1438.01" y="226.97" width="15.22" height="15.22"/><rect x="1468.45" y="226.97" width="15.22" height="15.22"/><rect x="1483.68" y="226.97" width="15.22" height="15.22"/><rect x="1559.79" y="226.97" width="15.22" height="15.22"/><rect x="1194.44" y="242.19" width="15.22" height="15.22"/><rect x="1209.66" y="242.19" width="15.22" height="15.22"/><rect x="1255.33" y="242.19" width="15.22" height="15.22"/><rect x="1270.55" y="242.19" width="15.22" height="15.22"/><rect x="1301" y="242.19" width="15.22" height="15.22"/><rect x="1331.45" y="242.19" width="15.22" height="15.22"/><rect x="1361.89" y="242.19" width="15.22" height="15.22"/><rect x="1377.11" y="242.19" width="15.22" height="15.22"/><rect x="1392.34" y="242.19" width="15.22" height="15.22"/><rect x="1422.78" y="242.19" width="15.22" height="15.22"/><rect x="1438.01" y="242.19" width="15.22" height="15.22"/><rect x="1453.23" y="242.19" width="15.22" height="15.22"/><rect x="1483.68" y="242.19" width="15.22" height="15.22"/><rect x="1544.57" y="242.19" width="15.22" height="15.22"/><rect x="1194.44" y="257.41" width="15.22" height="15.22"/><rect x="1285.78" y="257.41" width="15.22" height="15.22"/><rect x="1331.45" y="257.41" width="15.22" height="15.22"/><rect x="1346.67" y="257.41" width="15.22" height="15.22"/><rect x="1377.11" y="257.41" width="15.22" height="15.22"/><rect x="1392.34" y="257.41" width="15.22" height="15.22"/><rect x="1407.56" y="257.41" width="15.22" height="15.22"/><rect x="1422.78" y="257.41" width="15.22" height="15.22"/><rect x="1468.45" y="257.41" width="15.22" height="15.22"/><rect x="1483.68" y="257.41" width="15.22" height="15.22"/><rect x="1498.9" y="257.41" width="15.22" height="15.22"/><rect x="1514.12" y="257.41" width="15.22" height="15.22"/><rect x="1544.57" y="257.41" width="15.22" height="15.22"/><rect x="1559.79" y="257.41" width="15.22" height="15.22"/><rect x="1194.44" y="272.64" width="15.22" height="15.22"/><rect x="1255.33" y="272.64" width="15.22" height="15.22"/><rect x="1270.55" y="272.64" width="15.22" height="15.22"/><rect x="1422.78" y="272.64" width="15.22" height="15.22"/><rect x="1438.01" y="272.64" width="15.22" height="15.22"/><rect x="1453.23" y="272.64" width="15.22" height="15.22"/><rect x="1498.9" y="272.64" width="15.22" height="15.22"/><rect x="1529.35" y="272.64" width="15.22" height="15.22"/><rect x="1559.79" y="272.64" width="15.22" height="15.22"/><rect x="1194.44" y="287.86" width="15.22" height="15.22"/><rect x="1224.88" y="287.86" width="15.22" height="15.22"/><rect x="1240.11" y="287.86" width="15.22" height="15.22"/><rect x="1255.33" y="287.86" width="15.22" height="15.22"/><rect x="1270.55" y="287.86" width="15.22" height="15.22"/><rect x="1285.78" y="287.86" width="15.22" height="15.22"/><rect x="1346.67" y="287.86" width="15.22" height="15.22"/><rect x="1361.89" y="287.86" width="15.22" height="15.22"/><rect x="1377.11" y="287.86" width="15.22" height="15.22"/><rect x="1392.34" y="287.86" width="15.22" height="15.22"/><rect x="1407.56" y="287.86" width="15.22" height="15.22"/><rect x="1422.78" y="287.86" width="15.22" height="15.22"/><rect x="1438.01" y="287.86" width="15.22" height="15.22"/><rect x="1453.23" y="287.86" width="15.22" height="15.22"/><rect x="1468.45" y="287.86" width="15.22" height="15.22"/><rect x="1483.68" y="287.86" width="15.22" height="15.22"/><rect x="1498.9" y="287.86" width="15.22" height="15.22"/><rect x="1529.35" y="287.86" width="15.22" height="15.22"/><rect x="1316.22" y="303.08" width="15.22" height="15.22"/><rect x="1346.67" y="303.08" width="15.22" height="15.22"/><rect x="1361.89" y="303.08" width="15.22" height="15.22"/><rect x="1407.56" y="303.08" width="15.22" height="15.22"/><rect x="1422.78" y="303.08" width="15.22" height="15.22"/><rect x="1438.01" y="303.08" width="15.22" height="15.22"/><rect x="1498.9" y="303.08" width="15.22" height="15.22"/><rect x="1529.35" y="303.08" width="15.22" height="15.22"/><rect x="1194.44" y="318.31" width="15.22" height="15.22"/><rect x="1209.66" y="318.31" width="15.22" height="15.22"/><rect x="1224.88" y="318.31" width="15.22" height="15.22"/><rect x="1240.11" y="318.31" width="15.22" height="15.22"/><rect x="1255.33" y="318.31" width="15.22" height="15.22"/><rect x="1270.55" y="318.31" width="15.22" height="15.22"/><rect x="1285.78" y="318.31" width="15.22" height="15.22"/><rect x="1316.22" y="318.31" width="15.22" height="15.22"/><rect x="1361.89" y="318.31" width="15.22" height="15.22"/><rect x="1392.34" y="318.31" width="15.22" height="15.22"/><rect x="1438.01" y="318.31" width="15.22" height="15.22"/><rect x="1468.45" y="318.31" width="15.22" height="15.22"/><rect x="1498.9" y="318.31" width="15.22" height="15.22"/><rect x="1514.12" y="318.31" width="15.22" height="15.22"/><rect x="1559.79" y="318.31" width="15.22" height="15.22"/><rect x="1194.44" y="333.53" width="15.22" height="15.22"/><rect x="1285.78" y="333.53" width="15.22" height="15.22"/><rect x="1316.22" y="333.53" width="15.22" height="15.22"/><rect x="1361.89" y="333.53" width="15.22" height="15.22"/><rect x="1422.78" y="333.53" width="15.22" height="15.22"/><rect x="1438.01" y="333.53" width="15.22" height="15.22"/><rect x="1498.9" y="333.53" width="15.22" height="15.22"/><rect x="1544.57" y="333.53" width="15.22" height="15.22"/><rect x="1194.44" y="348.75" width="15.22" height="15.22"/><rect x="1224.88" y="348.75" width="15.22" height="15.22"/><rect x="1240.11" y="348.75" width="15.22" height="15.22"/><rect x="1255.33" y="348.75" width="15.22" height="15.22"/><rect x="1285.78" y="348.75" width="15.22" height="15.22"/><rect x="1331.45" y="348.75" width="15.22" height="15.22"/><rect x="1346.67" y="348.75" width="15.22" height="15.22"/><rect x="1361.89" y="348.75" width="15.22" height="15.22"/><rect x="1377.11" y="348.75" width="15.22" height="15.22"/><rect x="1392.34" y="348.75" width="15.22" height="15.22"/><rect x="1407.56" y="348.75" width="15.22" height="15.22"/><rect x="1422.78" y="348.75" width="15.22" height="15.22"/><rect x="1438.01" y="348.75" width="15.22" height="15.22"/><rect x="1453.23" y="348.75" width="15.22" height="15.22"/><rect x="1468.45" y="348.75" width="15.22" height="15.22"/><rect x="1483.68" y="348.75" width="15.22" height="15.22"/><rect x="1498.9" y="348.75" width="15.22" height="15.22"/><rect x="1514.12" y="348.75" width="15.22" height="15.22"/><rect x="1529.35" y="348.75" width="15.22" height="15.22"/><rect x="1544.57" y="348.75" width="15.22" height="15.22"/><rect x="1194.44" y="363.98" width="15.22" height="15.22"/><rect x="1224.88" y="363.98" width="15.22" height="15.22"/><rect x="1240.11" y="363.98" width="15.22" height="15.22"/><rect x="1255.33" y="363.98" width="15.22" height="15.22"/><rect x="1285.78" y="363.98" width="15.22" height="15.22"/><rect x="1331.45" y="363.98" width="15.22" height="15.22"/><rect x="1361.89" y="363.98" width="15.22" height="15.22"/><rect x="1392.34" y="363.98" width="15.22" height="15.22"/><rect x="1407.56" y="363.98" width="15.22" height="15.22"/><rect x="1422.78" y="363.98" width="15.22" height="15.22"/><rect x="1438.01" y="363.98" width="15.22" height="15.22"/><rect x="1453.23" y="363.98" width="15.22" height="15.22"/><rect x="1468.45" y="363.98" width="15.22" height="15.22"/><rect x="1514.12" y="363.98" width="15.22" height="15.22"/><rect x="1544.57" y="363.98" width="15.22" height="15.22"/><rect x="1559.79" y="363.98" width="15.22" height="15.22"/><rect x="1194.44" y="379.2" width="15.22" height="15.22"/><rect x="1224.88" y="379.2" width="15.22" height="15.22"/><rect x="1240.11" y="379.2" width="15.22" height="15.22"/><rect x="1255.33" y="379.2" width="15.22" height="15.22"/><rect x="1285.78" y="379.2" width="15.22" height="15.22"/><rect x="1331.45" y="379.2" width="15.22" height="15.22"/><rect x="1346.67" y="379.2" width="15.22" height="15.22"/><rect x="1392.34" y="379.2" width="15.22" height="15.22"/><rect x="1407.56" y="379.2" width="15.22" height="15.22"/><rect x="1453.23" y="379.2" width="15.22" height="15.22"/><rect x="1483.68" y="379.2" width="15.22" height="15.22"/><rect x="1529.35" y="379.2" width="15.22" height="15.22"/><rect x="1559.79" y="379.2" width="15.22" height="15.22"/><rect x="1194.44" y="394.42" width="15.22" height="15.22"/><rect x="1285.78" y="394.42" width="15.22" height="15.22"/><rect x="1316.22" y="394.42" width="15.22" height="15.22"/><rect x="1331.45" y="394.42" width="15.22" height="15.22"/><rect x="1361.89" y="394.42" width="15.22" height="15.22"/><rect x="1377.11" y="394.42" width="15.22" height="15.22"/><rect x="1407.56" y="394.42" width="15.22" height="15.22"/><rect x="1438.01" y="394.42" width="15.22" height="15.22"/><rect x="1453.23" y="394.42" width="15.22" height="15.22"/><rect x="1468.45" y="394.42" width="15.22" height="15.22"/><rect x="1483.68" y="394.42" width="15.22" height="15.22"/><rect x="1498.9" y="394.42" width="15.22" height="15.22"/><rect x="1559.79" y="394.42" width="15.22" height="15.22"/><rect x="1194.44" y="409.65" width="15.22" height="15.22"/><rect x="1209.66" y="409.65" width="15.22" height="15.22"/><rect x="1224.88" y="409.65" width="15.22" height="15.22"/><rect x="1240.11" y="409.65" width="15.22" height="15.22"/><rect x="1255.33" y="409.65" width="15.22" height="15.22"/><rect x="1270.55" y="409.65" width="15.22" height="15.22"/><rect x="1285.78" y="409.65" width="15.22" height="15.22"/><rect x="1316.22" y="409.65" width="15.22" height="15.22"/><rect x="1361.89" y="409.65" width="15.22" height="15.22"/><rect x="1377.11" y="409.65" width="15.22" height="15.22"/><rect x="1438.01" y="409.65" width="15.22" height="15.22"/><rect x="1453.23" y="409.65" width="15.22" height="15.22"/><rect x="1468.45" y="409.65" width="15.22" height="15.22"/><rect x="1514.12" y="409.65" width="15.22" height="15.22"/><rect x="1559.79" y="409.65" width="15.22" height="15.22"/><g id="OqkFLq.tif"><path class="cls-5" d="M847.05,417.78c0-12.73,0-25.45,0-38.18,0-1.47.44-1.59,1.69-1.59q46.92,0,93.83,0c-.19,1.07-1.11.83-1.78.91a121.67,121.67,0,0,0-19.67,3.56c-3.39,1-6.73,2.1-10,3.34a13.93,13.93,0,0,0-2.87,1.13c-.68.24-1.3.59-1.95.89-3.22,1.43-6.34,3-9.44,4.73-1.18.65-1.34,1.3-.49,2.35,1.41,1.77,2.85,3.52,4.13,5.39a1.44,1.44,0,0,0,2.34.45A82.62,82.62,0,0,1,914,395a94.3,94.3,0,0,1,25-6.15c4-.6,8.05-.35,12.08-.42a58.83,58.83,0,0,1,7.74.37,9.44,9.44,0,0,1,1.3.17,6.12,6.12,0,0,0,2.08.29A91.78,91.78,0,0,1,997,401.42c1.19.71,1.91.57,2.67-.54,1.17-1.72,2.53-3.31,3.81-4.95.88-1.13.71-1.82-.51-2.54a104.44,104.44,0,0,0-25-10.79,123.5,123.5,0,0,0-20.09-3.68c-.67-.07-1.59.2-1.78-.88q97.27,0,194.54,0c1.42,0,1.75.32,1.74,1.74q-.06,92.17,0,184.34c0,1.42-.31,1.74-1.74,1.74q-151-.06-302,0c-1.42,0-1.74-.32-1.74-1.74q.07-30.37,0-60.75a2.93,2.93,0,0,1,.63-.4,10.75,10.75,0,0,1,3.2-.21q25.27,0,50.56,0c.63,0,1.26,0,1.89,0,1.26,0,1.83-.52,1.83-1.81,0-4.29,0-8.58,0-12.86,0-2-1.25-1.88-2.55-1.89H874.4c-.76,0-1.52,0-2.27,0-2-.12-2.44-.54-2.56-2.49-.05-.76,0-1.51,0-2.27q0-29.81,0-59.6c0-3.36,0-3.36-3.32-3.37H850.31a8.32,8.32,0,0,1-2.63-.21A2.59,2.59,0,0,1,847.05,417.78Z" transform="translate(-58.71 -128.29)"/><path class="cls-6" d="M956.16,378c2.37.91,4.9.7,7.35,1a105,105,0,0,1,40.36,14.23c1.27.76,1.38,1.24.44,2.37-1.7,2-3.27,4.17-4.81,6.32-.62.86-1.06.89-2,.35a90,90,0,0,0-31.81-12l-3.53-.64c-.62-.33-1.34.07-2-.29l-1.06-.08c-.06-.36.16-.58.6-.94-5.83,0-11.46,0-17.08.11a10.61,10.61,0,0,0-4,.84,106.81,106.81,0,0,0-24.83,6.15c-1,.3-2.08-.41-3,.3-.12.08-.51,0-.52-.11-.18-1.9-1.86-1-2.79-1.52a1.16,1.16,0,0,1-.67-1.06,21.13,21.13,0,0,0-.73-5.59c.54-.39,1-.95,1.78-.83,1.45.93,1.91-.58,2.75-1.13a88.49,88.49,0,0,1,21.33-6c3.23-.53,6.49-.79,9.74-1.17.31,0,.64,0,.77-.37h2.27c.89.41,1.84.09,2.75.19,1.36-.11,2.73.22,4.07-.19Z" transform="translate(-58.71 -128.29)"/><path class="cls-7" d="M847.05,417.78l.38,0a3.3,3.3,0,0,1,.61,2.5q0,40.24,0,80.48a3.34,3.34,0,0,1-.61,2.5l-.38,0Z" transform="translate(-58.71 -128.29)"/><path class="cls-8" d="M951.61,378c-1.34.76-2.79.22-4.18.33-.11-.08-.15-.16-.11-.23a.17.17,0,0,1,.13-.1Z" transform="translate(-58.71 -128.29)"/><path class="cls-9" d="M947.45,378c0,.11,0,.22,0,.33-.88-.09-1.84.42-2.64-.33Z" transform="translate(-58.71 -128.29)"/><path d="M1080.51,503.1a2.13,2.13,0,0,1-1.58.27c-7.45,0-14.9,0-22.35,0a2.46,2.46,0,0,1-2.49-1.46c-5.45-9.35-11-18.66-16.44-28a2.34,2.34,0,0,0-2.37-1.35c-3.79.08-7.58.09-11.36,0-1.36,0-1.64.38-1.63,1.68.05,9.08,0,18.16.06,27.24,0,1.43-.27,1.93-1.83,1.91-6.44-.1-12.88-.07-19.32,0-1.16,0-1.6-.2-1.6-1.51q.06-41.34,0-82.69c0-1.13.23-1.48,1.43-1.48,16,.06,32,0,47.92.12a39.71,39.71,0,0,1,14.76,2.89c8.85,3.6,13.49,10.37,14.79,19.63.74,5.19.66,10.34-1.67,15.18a23.7,23.7,0,0,1-14.38,12.58c-.71.25-1.43.47-2.15.71a2.43,2.43,0,0,0-.38.24Z" transform="translate(-58.71 -128.29)"/><path d="M949.6,505.59c-8.24.05-16-1.65-22.92-6.37-7.78-5.32-11.92-12.77-13-22A40.39,40.39,0,0,1,915,460c3.26-10.14,10.21-16.86,20.25-20a44.92,44.92,0,0,1,29.56.38c15.54,5.67,21.9,18,21.11,33.8-.65,12.85-6.46,22.42-18.29,28a39.66,39.66,0,0,1-14.81,3.5C951.75,505.64,950.68,505.59,949.6,505.59Z" transform="translate(-58.71 -128.29)"/><path d="M1132.14,496.73c-4.28,5.42-10.15,6.86-16,7.91a28.16,28.16,0,0,1-19.55-3.21c-11.12-6.4-10.41-23.14-1.79-29.89,4.22-3.31,9.11-5,14.16-6.42,6.64-1.86,13.47-2.63,20.3-3.37,1.15-.12,1.54-.48,1.44-1.6s0-2.14,0-3.21c0-4.52-2-6.74-6.44-7.32a25.46,25.46,0,0,0-6.23,0c-4.06.5-6.18,3.13-7.2,6.79-.33,1.19-.77,1.56-2,1.55-5.37-.08-10.73-.11-16.1,0-1.57,0-1.72-.52-1.61-1.82.66-8,5.49-13.79,13.78-16.39,6.75-2.11,13.67-2.15,20.62-1.7a46.76,46.76,0,0,1,13.15,2.47c8,2.95,11.4,7.72,11.43,16.28,0,12.23,0,24.47.08,36.7a28.5,28.5,0,0,0,1.3,8.75c.32,1,.11,1.16-.83,1.16-5.37,0-10.73,0-16.1,0-1,0-1.26-.38-1.49-1.25A27,27,0,0,1,1132.14,496.73Z" transform="translate(-58.71 -128.29)"/><path d="M847.43,503.3V417.82c7.19,0,14.38,0,21.57-.09,1.39,0,1.1.83,1.1,1.6q0,15.89,0,31.77c0,10.72.06,21.43-.06,32.15,0,2,.6,2.38,2.48,2.37,10.53-.1,21.07,0,31.61-.08,1.3,0,1.7.28,1.67,1.63-.08,5,0,10,0,14.94,0,.93-.17,1.3-1.22,1.3q-28.4-.06-56.78,0A1.61,1.61,0,0,1,847.43,503.3Z" transform="translate(-58.71 -128.29)"/><path class="cls-6" d="M943.14,564.69a77.73,77.73,0,0,1-16.89-2.39c-.11-.5.31-.56.6-.71-.55-.07-.83.73-1.44.44a59.15,59.15,0,0,1-10.68-3,102.86,102.86,0,0,1-19.43-9.22c-1-.6-1.28-1-.43-2,1.68-2.05,3.26-4.17,4.81-6.32.68-.95,1.2-1.12,2.27-.47a89.17,89.17,0,0,0,35.39,12.47c18.88,2.5,36.95-.14,54.07-8.65.73-.36,1.48-.68,2.22-1,1.32,1,1-.71,1.56-.91C998,541,998,541,1000,543.57c1.29,1.7,2.55,3.43,3.9,5.1.64.79.73,1.21-.29,1.8a104.18,104.18,0,0,1-38,13.42,18.35,18.35,0,0,1-4.12.41c-3.29-.18-6.59.51-9.87-.15a2.29,2.29,0,0,0-1.3.12C948,565.25,945.56,564.8,943.14,564.69Z" transform="translate(-58.71 -128.29)"/><path class="cls-6" d="M924.71,402.25a16.72,16.72,0,0,1,5.31-1.5,4.3,4.3,0,0,0,2,.22c3.19.11,4.38,1.92,3.19,5.32a5.92,5.92,0,0,1,2.19-1.14c.44-.07.91-.22.89-.79s-.5-.64-.92-.79c-1.64-.61-2.11-1.38-1.69-2.72a1.83,1.83,0,0,1,.48-.8c1.09-1,4.63-.5,5.53.78,1-1.45,4.49-1.91,5.63-.75a2.34,2.34,0,0,1-.32,3.33c-.51.36-1.13.53-1.68.84,1.38,1.14,1.73,1.09,2.38-.35.11-.23-.11-.09.06-.16,2.51-1.05,3.15-4.89,6.81-4.33a55.13,55.13,0,0,0,6.18.17,70.68,70.68,0,0,1,18,4.76,87.55,87.55,0,0,1,11.89,5.78c1.14.65,1.22,1.13.42,2.12a53.71,53.71,0,0,0-3.35,4.58c-.6.93-1.08,1.12-2.09.51a69.57,69.57,0,0,0-27.89-9.49,72.54,72.54,0,0,0-44.39,8.49c-1.3.71-1.92.56-2.67-.62-1-1.58-2.19-3.08-3.32-4.59-.49-.65-.7-1.11.22-1.61a61.42,61.42,0,0,1,10.55-5,27,27,0,0,0,4.77,1c1.72.3,2.12-.33,1.72-2C924.58,403.06,924.33,402.65,924.71,402.25Z" transform="translate(-58.71 -128.29)"/><path class="cls-6" d="M967.53,534a77.32,77.32,0,0,0,18.86-7.54c.79-.47,1.1-.06,1.49.49,1.17,1.64,2.29,3.32,3.56,4.88.83,1,.67,1.45-.42,2.07a81.46,81.46,0,0,1-18.77,7.83,78.12,78.12,0,0,1-30.12,2.42c-.44-.25-1-.09-1.43-.4s-.93-.94-.65-1.22c1.09-1.08,1.38-2.79,2.72-3.56.72-.42,1.65-.43,2.31-1.12.47-.5.9-.12,1.27.28.63.68,1.35,1.26,2.11,2.07,0-.76-.57-1-.63-1.53-.16-1.28-1-1.62-2.15-1.53a5.23,5.23,0,0,1-1.31,0c-.57-.1-1.52,0-1.4-.83s.93-.64,1.56-.43a97.14,97.14,0,0,0,19.2-1.06c.15.45-.17.66-.54,1a5.94,5.94,0,0,0,2.32-.15c.62-.22.69-1.63,1.78-.84C967.3,534.54,967.25,534.23,967.53,534Z" transform="translate(-58.71 -128.29)"/><path class="cls-10" d="M971,422.66l1,.48c.31.78,1,.53,1.62.65a53.44,53.44,0,0,1,5.4,2.58c1,.55,1,1,.34,1.82-1,1.27-1.72,3.2-3,3.76s-2.85-1.15-4.29-1.84a52.56,52.56,0,0,0-32.23-4.48,8.57,8.57,0,0,1-1.13.07.81.81,0,0,0-.84-.27c-.48.1-.91,0-1.06-.51s.26-.77.62-1c.15-.11.32-.2.48-.3a1.24,1.24,0,0,0,.42-1.65c-.29-.76-.8-.46-1.37-.43-1.12.05-2.65.71-2.78-1.36a58.74,58.74,0,0,1,31.83.66,16.73,16.73,0,0,1,1.86.79A2.7,2.7,0,0,0,971,422.66Z" transform="translate(-58.71 -128.29)"/><path class="cls-6" d="M919,538.24a65.65,65.65,0,0,1-11.17-5.47c-.64-.36-.7-.73-.25-1.33,1.36-1.82,2.69-3.65,4-5.51a.86.86,0,0,1,1.39-.27,77.14,77.14,0,0,0,19.76,8.3c-.1.64.71.87.66,1.48s.12,1.47-.92,1c-.67-.28-.75.45-.93.44-1.95-.11-1.62,2-2.71,2.71-.88.6.78,1.29,0,2a28.89,28.89,0,0,1-6.43-2,1.51,1.51,0,0,1-.44-1c-.1-.77.07-1.69-1.12-1.82S919.38,537.44,919,538.24Z" transform="translate(-58.71 -128.29)"/><path class="cls-6" d="M933.36,522.28a54.69,54.69,0,0,1-13.49-5.7c-.56-.3-.77-.62-.28-1.14a1,1,0,0,0,.12-.16c1-1.49,1.78-3.62,3.21-4.31s3,1.22,4.56,1.95a57.63,57.63,0,0,0,16.58,4.88c1.7.44,2.13,2.06,1,3.52-1,1.29-2.54,1.76-3.7,2.79-2,.16-3.77-.82-5.68-1.14-.3-.14,0-.92-.79-.61A1.92,1.92,0,0,1,933.36,522.28Z" transform="translate(-58.71 -128.29)"/><path class="cls-11" d="M906.15,387.52c1.5,1.18,1.12,2.84,1.13,4.39,0,2.06.29,2.3,2.31,1.95.41-.07.91-.52,1.21-.09.43.58-.3,1-.49,1.46,1.23.13,1.23.13,2-1.59.44.78.18,2.15,1.62,1.86a110,110,0,0,0-11.84,6.19c-.77.51-1.09.16-1.51-.4-1.73-2.31-3.49-4.62-5.24-6.92-.41-.53-.82-1,.08-1.46C898.91,391,902.31,388.82,906.15,387.52Z" transform="translate(-58.71 -128.29)"/><path class="cls-12" d="M928.87,541.61c0-.55-.4-.68-.78-.93s-.45-1.23-.1-1.27c2-.24.9-2,1.46-2.93.69,0,1.61,1.47,1.92-.65.2-1.39.91.49,1.63.36,0-.56.32-1.28-.74-1.45-.28,0-.74-.14-.4-.56.15-.18.57-.15.87-.22l11.8,1.89c-.45.09-1-.12-1.43.79,1.33,0,2.53,0,3.74,0,.93,0,1.45.24,1.37,1.27-.05.64,0,1.24.8,1.48.52.15.91.66.48,1.16s-1.41.43-1.54.14c-.5-1.15-2-1.39-2.34-3-.46,1.18-1.08,1.81-2.23,1.6-.48-.09-1.14-.07-1.17.61-.06,1.11,0,2.11-1.59,2.18-.51,0-.3.67,0,1.08.35.61,1.13.52,1.56,1A55.94,55.94,0,0,1,928.87,541.61Z" transform="translate(-58.71 -128.29)"/><path class="cls-13" d="M952.74,518.13A61.16,61.16,0,0,0,972,513.8c.6.28,1,.93.57,1.34-.88.9-1.06,2.08-1.64,3.08-.74,1.28-2,1.27-3,0-.71-.9-1.42-1.56-2.6-1.19,1.25-.21,2,.23,1.71,1.66a1.34,1.34,0,0,0,1.14,1.78c.74.2,1,.71.5,1.42a39.75,39.75,0,0,1-12.13,2.6c-2.64.14-4-1.85-5.4-3.5C950.06,519.76,950.88,518.45,952.74,518.13Z" transform="translate(-58.71 -128.29)"/><path class="cls-14" d="M934.21,420.16c1.11,1.4,2.51,1.45,3.79.12,1.45,2.85,1.45,2.85-.92,4.49.08,1.15,1.92-.85,1.66.93l-9.43,2.79c-.93-.22-2,.17-2.75-.79.23.81,1.47.39,1.54,1.35a.38.38,0,0,1-.35.09c-.48.29-1.16.16-1.52.71-.81.44-1.62.85-2.41,1.32s-1.12.15-1.37-.55a3.85,3.85,0,0,0-1.86-3.41.92.92,0,0,1-.42-1.42c.51-.26.77-1,1.5-.85a2,2,0,0,0,1.16,1.3c.23-.86,1.52-.71,1.61-1.7,0-.37-.05-.77.27-1.06a.41.41,0,0,1,.32-.17c1.89,1.42,2.4-.69,3.47-1.35A26,26,0,0,1,934.21,420.16Z" transform="translate(-58.71 -128.29)"/><path class="cls-15" d="M960.79,399.58a36.65,36.65,0,0,1-7.9.4c-1.07,0-1.72.33-1.65,1.51s-.52,1.61-1.62,1.53c-.87-.07-1.49.13-1.43,1.21,0,.52.19,1.28-.61,1.36s-1.79.49-2.26-.35c-.37-.65-1.07-.55-1.5-1.11,1.33-.86,3.92-.25,3.61-3-.2-1.7-1.57-1-2.52-1.18-2.23-.39-3.22.54-2.77,2.84-.35-.08-.55-.09-.56-.14C941,400,940,399.48,937.2,400c-1.16.21-1.09,1-1.13,1.84s.4,1.24,1.26,1.19,1.73.11,1.8,1.36c.07,1.41-.83,1.36-1.74,1.28s-1.18.83-1.81,1.18c-.34.19-.63.79-1.12.33a.73.73,0,0,1,0-1.17c1.5-1.2.63-2.35.11-3.64-.58-1.45-1.71-.61-2.57-.85-.7-.2-1.72.48-2-.76a71.9,71.9,0,0,1,23.33-2.08A32.79,32.79,0,0,1,960.79,399.58Z" transform="translate(-58.71 -128.29)"/><path class="cls-16" d="M968.66,521.89c0-.59,0-1.09-.88-1-1.12.09-1.51-.58-1.39-1.68.23-2.13,0-2.27-2.15-1.29.08-.86.37-1.33,1.24-1.34,1,0,2.11,0,2.66,1,.37.71.6,1.52,1.56,1.16a1.83,1.83,0,0,0,1.25-1.9c0-.53-.18-1.21.62-1.36,1.36-.26.68-1,.45-1.68,1.4-.67,2.89-2,4.17-1.83s1.86,2.32,2.93,3.45.88,1.86-.57,2.54C975.32,519.45,972.21,521.2,968.66,521.89Z" transform="translate(-58.71 -128.29)"/><path class="cls-11" d="M952.74,518.13c-2,.85-2.1,1.81-.42,3.06.58.44.68,1.15,1.27,1.66a9.12,9.12,0,0,0,2.94,1.64,46.14,46.14,0,0,1-15.15-.38c-.09-.94.34-1.18,1.24-1.59,1.09-.5,2.51-1.18,2.58-2.9a1.63,1.63,0,0,0-1.14-1.82Z" transform="translate(-58.71 -128.29)"/><path class="cls-17" d="M938.74,389.35c.23-.36.3-.88.81-1a44.94,44.94,0,0,1,8.11-.52c4,.05,7.9,0,11.85,0,.58,0,1.25-.27,1.82.4-.64.55-1.64.34-2.13,1A129.4,129.4,0,0,0,938.74,389.35Z" transform="translate(-58.71 -128.29)"/><path class="cls-18" d="M924.71,402.25a1.16,1.16,0,0,0,.07.37c.58,1,1.4,2.4.15,3.12a3.44,3.44,0,0,1-4-.24c-.24-.2-.39-.62-.68-.25-1.54,2-1.49-.25-2.1-.76A22.5,22.5,0,0,1,924.71,402.25Z" transform="translate(-58.71 -128.29)"/><path class="cls-19" d="M943.14,564.69c1.19,0,2.38,0,3.57-.05s2.23.39,3-.92c.16-.28,1.08-.3,1.59-.18,3.38.78,6.87.1,10.26.76a13.93,13.93,0,0,1-4.5.39c-1.92.4-3.88-.11-5.79.28A36.68,36.68,0,0,1,943.14,564.69Z" transform="translate(-58.71 -128.29)"/><path class="cls-20" d="M919,538.24c-.12-.56-.69-1.15.13-1.63a3.76,3.76,0,0,1,2.73-.26c.77.14.53.87.56,1.39s0,1.25,0,1.87A12.13,12.13,0,0,1,919,538.24Z" transform="translate(-58.71 -128.29)"/><path class="cls-21" d="M924.71,423.48c.32,1.16.81,2.39-1.2,2.46-.19,0-.35.67-.61,1.19-.33-.87-1.75-.92-1.23-2.19A8.73,8.73,0,0,1,924.71,423.48Z" transform="translate(-58.71 -128.29)"/><path class="cls-21" d="M920.17,425.79a1.6,1.6,0,0,0,1.06,1.4c1.69.71,1.85,1.92,1.22,3.43-.93-1.22-1.84-2.46-2.8-3.66C919,426.16,919.39,425.91,920.17,425.79Z" transform="translate(-58.71 -128.29)"/><path class="cls-21" d="M928.5,422c0,.93-.78,1.43-1.3,2-1,1.08-1.74.59-2.17-.63A11.26,11.26,0,0,1,928.5,422Z" transform="translate(-58.71 -128.29)"/><path class="cls-22" d="M965.63,535.88c-1.15,1.24-2.36-.12-3.56.24.33-.88,1.46-.46,1.66-1.33l.68-.09C965.27,534.63,965.72,535,965.63,535.88Z" transform="translate(-58.71 -128.29)"/><path class="cls-23" d="M965.63,535.88a2.42,2.42,0,0,0-1.22-1.18,9.81,9.81,0,0,1,3.12-.69c-.19.68.54,1.28.2,2-.87.1-.38-.8-.91-1.06C966.1,534.71,966.72,536.55,965.63,535.88Z" transform="translate(-58.71 -128.29)"/><path class="cls-11" d="M910.68,385.56a3.13,3.13,0,0,1-1.55,2.32c-1.29,1-.59-.95-1.2-1.19A6.72,6.72,0,0,1,910.68,385.56Z" transform="translate(-58.71 -128.29)"/><path class="cls-24" d="M928.1,429.05a7.78,7.78,0,0,0-2.51-1c.77-1,.77-1,3.72.47Z" transform="translate(-58.71 -128.29)"/><path class="cls-25" d="M971,422.66c-1.91,1.2-2.14,1.12-3.12-1.05A6.71,6.71,0,0,1,971,422.66Z" transform="translate(-58.71 -128.29)"/><path class="cls-26" d="M995.19,542.82c0,.78-.48,1.5,0,2.48-.93-.42-1.42-.82-1.53-1.57A3.48,3.48,0,0,1,995.19,542.82Z" transform="translate(-58.71 -128.29)"/><path class="cls-27" d="M925.41,562c.41-.28.81-.57,1.23-.83s.68-1,1.15-.33c.36.54-.32.8-.72,1a6.84,6.84,0,0,1-.82.38Z" transform="translate(-58.71 -128.29)"/><path class="cls-28" d="M951.25,565c1.9-.7,3.86-.17,5.78-.28A21.13,21.13,0,0,1,951.25,565Z" transform="translate(-58.71 -128.29)"/><path class="cls-29" d="M933.36,522.28a2.92,2.92,0,0,0,2.47-1c.48.67-.21,1.12-.13,1.66A5.34,5.34,0,0,1,933.36,522.28Z" transform="translate(-58.71 -128.29)"/><path class="cls-25" d="M973.68,423.79c-.53.23-1.07.65-1.67.28-.43-.26,0-.62,0-.93A2.24,2.24,0,0,1,973.68,423.79Z" transform="translate(-58.71 -128.29)"/><path class="cls-24" d="M926.23,429.85c-.09-1.53,1-.46,1.52-.71A2.66,2.66,0,0,1,926.23,429.85Z" transform="translate(-58.71 -128.29)"/><path class="cls-17" d="M960.26,389.42c.65,0,1.37-.26,2,.29A3.27,3.27,0,0,1,960.26,389.42Z" transform="translate(-58.71 -128.29)"/><path class="cls-30" d="M934,388.71c.08.52-.21.63-.54.66a2.43,2.43,0,0,1-2-.73.51.51,0,0,1,.06-.81,1.08,1.08,0,0,1,.48-.16c.33,1,.95.88,1.69.53A4.15,4.15,0,0,1,934,388.71Z" transform="translate(-58.71 -128.29)"/><path class="cls-17" d="M962.57,389.16c.64-.67.9-1.47,1.87-1.2a.36.36,0,0,1,.21.59C964.25,389.2,963.71,389.53,962.57,389.16Z" transform="translate(-58.71 -128.29)"/><path class="cls-5" d="M1035.57,433.58c3.54.21,7.84-.4,12.09.42,4.44.85,7.15,3.5,7.94,8a16.32,16.32,0,0,1-.34,7.67c-1.32,4.37-5,6.94-10.49,7.05-7,.14-14,0-21,.07-.87,0-1.22-.2-1.22-1.14q.06-10.41,0-20.8c0-1.23.58-1.27,1.5-1.26C1027.64,433.6,1031.24,433.58,1035.57,433.58Z" transform="translate(-58.71 -128.29)"/><path class="cls-5" d="M933.45,471.4c-.11-4.41.46-8.68,2.89-12.48,3.59-5.63,8.95-7.47,15.3-6.84,6.65.65,11.07,4.38,13.11,10.61a28.54,28.54,0,0,1-.67,19.43c-2.07,5.41-6.3,8.2-12,8.69-10.88.94-18-5.26-18.64-16.2C933.39,473.54,933.45,472.47,933.45,471.4Z" transform="translate(-58.71 -128.29)"/><path class="cls-5" d="M1130.65,476.52c0,3.73-.64,7.26-3,10.29-3.54,4.47-11.87,6.23-16.9,3.54a6.63,6.63,0,0,1-1.6-10.34,13.75,13.75,0,0,1,6.36-3.53c4.53-1.32,9.1-2.5,13.63-3.8,1.23-.35,1.72-.16,1.57,1.2A23.24,23.24,0,0,0,1130.65,476.52Z" transform="translate(-58.71 -128.29)"/><path class="cls-15" d="M931.26,403.34c-.33,0-.64-.19-.6-.55s.36-.49.69-.47a.47.47,0,0,1,.49.46A.5.5,0,0,1,931.26,403.34Z" transform="translate(-58.71 -128.29)"/><path class="cls-29" d="M937.57,521.93c-.07.22-.06.55-.41.47s-.32-.35-.29-.6,0-.56.41-.47S937.58,521.67,937.57,521.93Z" transform="translate(-58.71 -128.29)"/></g><path class="cls-5" d="M413.38,564.94q-171.17,0-342.33.06c-2.49,0-3-.56-3-3q.12-90.63,0-181.25c0-2.27.45-2.71,2.72-2.71q342.66.11,685.33,0c2.27,0,2.72.44,2.72,2.71q-.12,90.8,0,181.58c0,2.27-.45,2.71-2.72,2.71Q584.72,564.9,413.38,564.94Z" transform="translate(-58.71 -128.29)"/><path class="cls-31" d="M80.69,471.09c0-41.92,34.24-75.88,76.36-75.8a76,76,0,0,1,75.86,76c0,41.92-34.22,75.87-76.35,75.79A76,76,0,0,1,80.69,471.09Z" transform="translate(-58.71 -128.29)"/><path class="cls-32" d="M559.39,448c0-6.72,0-13.45,0-20.18,0-1.37-.15-2.68,1.94-2.6,7.73.31,15.5-.64,23.19.53,12.84,1.95,19.93,11.06,19.31,24.54-.51,11.09-9.71,19.94-21.73,20.5-6.85.31-13.72,0-20.58.11-1.89,0-2.16-.8-2.14-2.38C559.42,461.65,559.39,454.81,559.39,448Z" transform="translate(-58.71 -128.29)"/><path class="cls-31" d="M553.13,470.84c-4.4,0-8.26-.08-12.12,0-1.53,0-2.13-.71-2.7-1.89-1.88-3.86-4-7.63-5.69-11.56-1.37-3.13-3.93-1.88-6-1.83s-1,2.09-1.08,3.19c-.17,3.19-.15,6.4,0,9.6.07,1.74-.22,2.7-2.28,2.47-3.15-.34-7.26,1.34-9.21-.7-1.51-1.59-.49-5.64-.5-8.6,0-11.15.08-22.31-.07-33.45,0-2.56.7-3.12,3.14-3.06,7.19.2,14.4-.05,21.58.22s12.22,4.23,14.08,10.55c2.06,7-.38,13.74-6.61,17.45-1.55.93-1.7,1.46-.81,3C547.59,460.86,550.17,465.59,553.13,470.84Z" transform="translate(-58.71 -128.29)"/><path class="cls-31" d="M338.71,440.79c0-4.3.08-8.6,0-12.9-.05-1.89.28-2.87,2.49-2.71,3.08.22,7.08-1,9,.52,2.11,1.62.6,5.79.68,8.84.17,6.16,0,12.35.29,18.51.27,5.31,3.56,8.08,8.9,8.16s9-2.76,9.17-8.22c.33-8.15.29-16.32.21-24.47,0-2.48.44-3.65,3.22-3.35s6.63-.88,8.34.56c2,1.68.6,5.58.66,8.51.11,6.17.05,12.35,0,18.53-.05,10-5.26,16.53-15.07,18.39a33,33,0,0,1-14.81-.44c-8.06-2.19-12.93-8.54-13.09-17C338.64,449.4,338.71,445.09,338.71,440.79Z" transform="translate(-58.71 -128.29)"/><path class="cls-32" d="M652.25,440.9c0,4.19.06,8.39,0,12.58-.16,9.06-5,15.26-13.87,17.39a31.93,31.93,0,0,1-16.41-.3c-7.77-2.22-12.55-8.45-12.68-16.66-.15-8.72,0-17.44-.08-26.15,0-2.09.69-2.71,2.68-2.58a39,39,0,0,0,6.3,0c2.59-.25,3.44.61,3.39,3.28-.16,7.83-.19,15.67,0,23.5.18,6.7,4,9.78,10.6,9.09,4.58-.49,7.42-3.05,7.57-7.67.27-8.16.29-16.33.16-24.49,0-2.81.55-4.11,3.63-3.71,2.72.35,6.28-1.11,8,.53,1.92,1.81.52,5.43.66,8.25C652.34,436.26,652.25,438.58,652.25,440.9Z" transform="translate(-58.71 -128.29)"/><path class="cls-31" d="M472.32,448.09c0-6.74.07-13.47,0-20.21,0-2.06.38-2.86,2.68-2.82,9.63.13,19.27.1,28.91,0,1.88,0,2.38.52,2.4,2.39.11,7.7.18,7.7-7.68,7.7-3.77,0-7.55.18-11.3-.06-2.62-.17-3.39.81-3,3.19a5.77,5.77,0,0,1,0,1.66c-.34,2.24.43,3.08,2.86,3,5.42-.18,10.85,0,16.28-.1,2,0,2.63.47,2.64,2.56,0,7.43.13,7.43-7.39,7.43-4,0-8,.08-12,0-1.85-.06-2.46.46-2.47,2.39-.06,5.71-.15,5.71,5.71,5.71,4.66,0,9.31.09,14,0,1.95-.06,2.34.62,2.36,2.44.09,7.55.15,7.55-7.48,7.55-8,0-16-.07-23.93,0-2.05,0-2.63-.52-2.59-2.58C472.4,461.57,472.32,454.83,472.32,448.09Z" transform="translate(-58.71 -128.29)"/><path class="cls-32" d="M721,442.86c3.85-5.06,7.77-10.07,11.51-15.21a5.13,5.13,0,0,1,4.91-2.49c3.64.2,7.29,0,10.88,0,.68,1.06-.2,1.51-.64,2-4.82,5.76-9.58,11.56-14.53,17.2-1.48,1.68-1.38,2.72,0,4.4,5.66,7,11.17,14.23,17.19,21.95-5.1,0-9.65,0-14.2,0-1.16,0-1.53-1.17-2.09-1.95-3.08-4.31-6.21-8.59-9.15-13-1.2-1.79-1.78-1.47-3.07-.06-1.64,1.79-1.44,3.79-1.52,5.87-.1,2.95,1.28,6.85-.53,8.59-2,1.89-5.9.36-9,.62-1.82.16-2.51-.39-2.5-2.35q.11-20.36,0-40.71c0-2,.59-2.77,2.63-2.6,3,.24,6.74-1.18,8.68.54s.52,5.61.66,8.53c.14,2.74,0,5.49,0,8.23Z" transform="translate(-58.71 -128.29)"/><path class="cls-31" d="M406.9,471.7c-6.58.05-12.68-1.39-18.1-5.32-1.75-1.26-2.53-2.34-.75-4.09a4.74,4.74,0,0,0,.56-.82c1.28-1.79,2.2-4.34,3.95-5.18,2-1,3.37,2,5.31,2.85,4,1.74,8.06,3.05,12.5,2,1.8-.41,3.54-1.25,3.69-3.28s-1.64-3-3.35-3.55c-4.5-1.52-9.32-1.81-13.77-3.54-7.07-2.77-10.16-8.15-8.49-15.1,1.22-5.06,4.73-8.24,9.48-9.77,8.92-2.87,17.42-1.58,25.38,3.38,1.61,1,2.19,1.87.67,3.53-1.71,1.87-2.77,4.67-4.81,5.79s-4-1.85-6.25-2.49c-3-.85-5.92-1.69-9.08-1.18-1.78.29-3.25,1-3.41,3s1.3,2.68,2.86,3.09c2.66.7,5.37,1.24,8,1.93a61.1,61.1,0,0,1,6,1.78c5.13,1.88,8.83,5,9,11,.2,6.72-2.64,11.36-8.47,14C414.37,471.34,410.65,471.64,406.9,471.7Z" transform="translate(-58.71 -128.29)"/><path class="cls-32" d="M682.58,471.6c-14.39,0-24.35-9.64-24.35-23.54s10.08-23.55,24.34-23.65c8.39-.06,15,3,19.68,10.09,1.1,1.69,1.12,2.72-1,3.29a7.91,7.91,0,0,0-1.8.83c-3.47,2-6.32,3.52-9.76-1-2.81-3.67-7.73-3.57-12-1.57-5,2.36-7.24,6.67-7.35,12a12.86,12.86,0,0,0,8.35,12.36c5.07,1.81,9.48.37,13.45-4.38.07-.08.1-.24.18-.27,4.14-1.64,6.72,1.94,9.94,3.18,2.12.82,0,2.43-.63,3.36C697.28,468.79,691.33,471.61,682.58,471.6Z" transform="translate(-58.71 -128.29)"/><path class="cls-31" d="M278.75,471.65c-9.42,0-17.2-3.41-21.81-11.88-4.43-8.15-4.27-16.64.63-24.57,8.74-14.13,31.56-14.58,40.36-1,1.22,1.88,1.42,3-1.08,3.7a8.69,8.69,0,0,0-2.39,1.12c-3.17,2-5.64,2.75-8.55-1.1-2.79-3.68-8.54-3.87-12.83-1.64a13.28,13.28,0,0,0-6.8,13.32c.76,5.33,3.43,9.43,8.74,11s9.86.07,13-4.65c.82-1.23,1.55-1.27,2.72-.61,1.34.75,2.77,1.35,4.17,2,4.93,2.31,4.94,2.31,1.41,6.63C292.14,469.14,286.44,471.61,278.75,471.65Z" transform="translate(-58.71 -128.29)"/><path class="cls-31" d="M448.08,425.22c5.53,0,11.07,0,16.6,0,1.63,0,2.3.3,2.38,2.14.35,8.28.41,8.28-7.83,8.28-5.07,0-5.07,0-5.07,4.94,0,9.05-.08,18.1,0,27.15,0,2.3-.29,3.53-3,3.18-2.92-.38-6.86,1.22-8.56-.67-1.45-1.61-.45-5.44-.46-8.29,0-7.62-.19-15.24.08-22.85.11-3.1-1-3.91-3.72-3.47a11.49,11.49,0,0,1-1.66,0c-8.06,0-8,0-7.85-7.95,0-2.21.89-2.51,2.76-2.47C437.23,425.28,442.65,425.22,448.08,425.22Z" transform="translate(-58.71 -128.29)"/><path class="cls-33" d="M423.23,526.5c-11.63,0-20.23-8.58-20.15-20,.08-11.18,8.79-19.65,20.23-19.68s20.34,8.58,20.32,19.93S434.92,526.54,423.23,526.5Z" transform="translate(-58.71 -128.29)"/><path class="cls-33" d="M507.52,526.5c-11.59-.07-20.26-8.69-20-20.15.27-11.27,8.12-19.34,20.33-19.49a19.46,19.46,0,0,1,20.19,20C528,518.22,519.24,526.57,507.52,526.5Z" transform="translate(-58.71 -128.29)"/><path class="cls-33" d="M347.25,526.5c-11.44-.09-20.06-8.6-19.92-19.88.14-11.45,8.11-19.66,20.4-19.76,11.67-.09,20.22,8.67,20.12,20.07S359,526.59,347.25,526.5Z" transform="translate(-58.71 -128.29)"/><path class="cls-33" d="M302.54,487.47c3.19.13,6.83-.19,10.47.48,4.79.87,8.9,4.47,9.62,8.81,1,6.37-.81,11.24-5.73,13.54-2.15,1-1.91,1.73-.91,3.33,2.05,3.27,3.91,6.66,5.9,10,1,1.71.57,2.07-1.35,2.3-4.71.59-8.1-.52-9.72-5.48-.75-2.26-2.29-4.26-3.46-6.39a3.25,3.25,0,0,0-2.72-2.07c-4.13-.41-4.52-.13-4.53,4.05,0,2.32-.15,4.65,0,7s-.8,3-3,2.92c-6-.19-5,.55-5.07-5.15-.06-10,.06-20.09-.07-30.13,0-2.46.64-3.39,3.16-3.18C297.43,487.62,299.77,487.47,302.54,487.47Z" transform="translate(-58.71 -128.29)"/><path class="cls-31" d="M304.15,448.13c0-6.83.05-13.66,0-20.5,0-1.85.5-2.59,2.42-2.43,3.06.24,7-1.22,9,.56s.55,5.61.59,8.54c.08,7.83.09,15.66,0,23.48,0,2.13.51,2.91,2.76,2.82,4.53-.17,9.07,0,13.6-.08,1.64,0,2.27.37,2.35,2.18.33,8.14.39,8.14-7.87,8.14-6.74,0-13.49-.08-20.23,0-2.05,0-2.62-.52-2.58-2.58C304.23,461.58,304.15,454.86,304.15,448.13Z" transform="translate(-58.71 -128.29)"/><path class="cls-33" d="M256.12,506.63c0-5.52,0-11,0-16.55,0-1.39-.06-2.71,2-2.62,6.29.27,12.6-.48,18.87.51,6.67,1,10.17,5.53,9.91,12.95a11.24,11.24,0,0,1-10.71,11c-3.19.21-6.41.13-9.62.06-1.7,0-2.39.54-2.34,2.29.1,3-.07,6,.06,8.93.08,2-.49,2.92-2.6,2.68a12.91,12.91,0,0,0-3,0c-2.11.24-2.62-.75-2.59-2.69C256.18,517.66,256.12,512.14,256.12,506.63Z" transform="translate(-58.71 -128.29)"/><path class="cls-33" d="M467.68,526.5c-10.76-.07-19.16-7.7-20-18.19s6-19.15,16.83-21c7.24-1.25,13.28.77,18.17,6.26,1.55,1.75,1.86,2.91-.81,4.05s-4.26,2-7-.69c-5.1-5.14-13.73-3.15-17.12,3.33a13,13,0,0,0,.33,13.56,11,11,0,0,0,10.68,5.41,10.88,10.88,0,0,0,7.49-3.77c1.21-1.3,5.23-.79,7.08,1.16,1.64,1.71-.4,2.72-1.25,3.68C478.21,524.67,473.7,526.54,467.68,526.5Z" transform="translate(-58.71 -128.29)"/><path class="cls-34" d="M381.21,510.1c0-4.31-.07-8.62,0-12.92,0-1.82-.51-2.62-2.44-2.51-2.21.12-4.43-.07-6.64,0-3.13.17-2.19-2.11-2.21-3.65s-.82-3.67,2.26-3.63c8.86.11,17.72.08,26.58,0,3.39,0,2,2.45,2.2,4s.47,3.48-2.28,3.26c-1.87-.15-3.78.12-5.64-.06-2.54-.24-3.47.53-3.41,3.25.18,8.17-.05,16.34.13,24.51.06,2.79-.78,3.84-3.53,3.44a10.68,10.68,0,0,0-2.65,0c-1.94.21-2.47-.69-2.43-2.5C381.27,518.93,381.21,514.51,381.21,510.1Z" transform="translate(-58.71 -128.29)"/><path class="cls-33" d="M534,506.6c0-5.4.1-10.81-.05-16.2-.06-2.34.72-3.25,3-2.95a9.4,9.4,0,0,0,2.31,0c2.16-.26,2.88.6,2.85,2.79-.11,8.38.07,16.76-.11,25.13,0,2.7.84,3.42,3.4,3.29,3.64-.19,7.3.06,11-.08,3.1-.11,2.25,2.08,2.23,3.63s1,3.71-2.18,3.66c-6.75-.11-13.5-.08-20.24,0-1.82,0-2.23-.79-2.21-2.4C534,517.85,534,512.23,534,506.6Z" transform="translate(-58.71 -128.29)"/><path class="cls-34" d="M592.16,521c-1.39.7-.8,2.18-1.33,3.18-.41.77-.48,1.7-1.69,1.67s-1.7-.76-1.91-1.85a7.41,7.41,0,0,0-1.41-3.41v3.62c0,.82-.15,1.54-1.2,1.6-1.21.07-1.49-.66-1.49-1.67,0-2.31,0-4.61,0-6.92,0-1.15.3-1.95,1.64-1.91,1.18,0,2.54-.3,3,1.32.37,1.37.68,2.75,1,4.19,1.58-.69,1.05-2.14,1.26-3.18.42-2.13,1.68-2.51,3.57-2.35,2.2.18,1.47,1.8,1.53,3,.09,1.87,0,3.74,0,5.61,0,.86.13,1.85-1.17,1.95-1.52.11-1.44-.94-1.52-2S592.84,521.89,592.16,521Z" transform="translate(-58.71 -128.29)"/><path class="cls-35" d="M576.33,515.26a22.44,22.44,0,0,1,2.32,0c1,.1,2.41-.51,2.59,1.21.17,1.52-1.06,1.31-2,1.5-2.06.4-.93,2.11-1.27,3.22-.48,1.55,1.35,4.34-1.57,4.48-3.24.15-1.41-2.76-1.7-4.28s.47-3.72-2.45-3.57c-.85,0-1-.74-.92-1.45s.63-1.09,1.36-1.1c1.21,0,2.43,0,3.65,0Z" transform="translate(-58.71 -128.29)"/><path class="cls-5" d="M160.39,511.3c-11.89,0-21.63-2.46-30.09-8.79-12.81-9.58-16.23-24-12.39-38.72a16.92,16.92,0,0,1,4.31-7.35c1.22-1.3,2.23-1.28,3.1.27,1.68,3,3.26,6,5,9,4.36,7.44,11.26,10.59,18.29,8.44a15.32,15.32,0,0,0,4.4-2.27c5.31-3.8,5.55-5.55,1.44-10.48-9.42-11.31-4.18-27.38,9.81-29.94,6.7-1.22,11.89,1.52,15.93,6.66a42,42,0,0,1,3.55,5.57c2.06,3.69,3.65,4.35,7.87,3.42,1.7-.38,3.93-2.06,5.12,0s.31,4.3-1.21,6.15a22.6,22.6,0,0,1-9.56,6.89c-1.38.53-3.38.32-3.47,2.42-.08,1.94,1.23,3.07,2.84,4.11,9.59,6.22,13.13,19.67,7.88,29.6-2.6,4.91-6.76,8.1-11.68,10.37A48.82,48.82,0,0,1,160.39,511.3Z" transform="translate(-58.71 -128.29)"/><path class="cls-5" d="M571.36,448c0-3.31.08-6.62,0-9.93-.06-1.81.44-2.64,2.4-2.5,3.18.23,6.41-.32,9.56.65a11.61,11.61,0,0,1,8.39,12.05c-.27,6-4.2,10.85-9.69,11.89-9.77,1.85-10.62,1.17-10.62-8.52Z" transform="translate(-58.71 -128.29)"/><path class="cls-36" d="M531.05,435a45.53,45.53,0,0,1,5.24.46c2.67.54,4.38,2.22,4.27,5-.1,2.62-1.72,4.14-4.3,4.69-3.06.64-6.15.18-9.22.33-1.15.05-1.58-.5-1.55-1.59s0-2.2,0-3.29C525.5,435.16,525.5,435.16,531.05,435Z" transform="translate(-58.71 -128.29)"/><path class="cls-5" d="M435.05,506.85c0,7.38-4.74,12.36-11.7,12.36-7.12,0-11.72-5-11.69-12.68,0-7.36,4.8-12.43,11.69-12.44S435.08,499.28,435.05,506.85Z" transform="translate(-58.71 -128.29)"/><path class="cls-5" d="M496.08,506.67c0-7.42,4.66-12.48,11.55-12.58s11.84,5.11,11.84,12.62-4.65,12.46-11.56,12.5C500.75,519.26,496.08,514.3,496.08,506.67Z" transform="translate(-58.71 -128.29)"/><path class="cls-5" d="M359.27,506.66c0,7.61-4.71,12.6-11.84,12.55-6.94-.05-11.54-5-11.54-12.5s4.83-12.7,11.82-12.62S359.26,499.29,359.27,506.66Z" transform="translate(-58.71 -128.29)"/><path class="cls-37" d="M305.52,505.21c-6.26-.07-5.31.88-5.41-5.38a19.57,19.57,0,0,0,0-2.3c-.31-2.36.75-3.11,3-2.93,2,.16,4,0,5.94.06,3.48.14,5.59,2.11,5.63,5.17,0,2.87-1.94,5-5.19,5.35A34.84,34.84,0,0,1,305.52,505.21Z" transform="translate(-58.71 -128.29)"/><path class="cls-37" d="M269.81,505.14c-5.6.1-5.6.1-5.6-5.47,0-1,.06-2,0-3-.1-1.58.63-2.14,2.16-2.09,2.31.07,4.63-.05,6.94,0,3.13.12,5.16,1.92,5.45,4.67s-1.5,5.22-4.67,5.77A25.45,25.45,0,0,1,269.81,505.14Z" transform="translate(-58.71 -128.29)"/><path class="cls-38" d="M175.33,450.35c-1.91-.24-2.93-1.09-2.87-2.79a2.63,2.63,0,0,1,5.26,0C177.78,449.33,176.62,450,175.33,450.35Z" transform="translate(-58.71 -128.29)"/></svg>